<?xml version="1.0" encoding="utf-8"?>
<!-- Generator: Adobe Illustrator 23.0.1, SVG Export Plug-In . SVG Version: 6.00 Build 0)  -->
<svg version="1.1" id="Laag_1" xmlns="http://www.w3.org/2000/svg" xmlns:xlink="http://www.w3.org/1999/xlink" x="0px" y="0px"
	 viewBox="0 0 32 32" style="enable-background:new 0 0 32 32;" xml:space="preserve">
<path d="M9.8,23.4c-1.4-0.7-2.4-1.7-3.2-3c-0.8-1.3-1.2-2.8-1.2-4.4s0.4-3.1,1.2-4.4s1.8-2.3,3.2-3s2.9-1.1,4.6-1.1
	c1.4,0,2.7,0.3,3.9,0.8c1.1,0.5,2.1,1.2,2.9,2.2l-2.4,2.3c-1.1-1.3-2.5-1.9-4.1-1.9c-1,0-1.9,0.2-2.7,0.7c-0.8,0.4-1.4,1.1-1.9,1.9
	S9.3,15,9.3,16c0,1,0.2,1.9,0.7,2.7s1.1,1.4,1.9,1.9s1.7,0.7,2.7,0.7c1.6,0,3-0.6,4.1-2l2.4,2.3c-0.8,1-1.8,1.7-2.9,2.2
	c-1.2,0.5-2.5,0.8-3.9,0.8C12.7,24.5,11.2,24.1,9.8,23.4z"/>
<path d="M22.9,23.9c-0.4-0.4-0.6-0.9-0.6-1.5s0.2-1.1,0.6-1.5c0.4-0.4,0.9-0.6,1.5-0.6c0.6,0,1.1,0.2,1.5,0.6
	c0.4,0.4,0.6,0.9,0.6,1.5s-0.2,1.1-0.6,1.5c-0.4,0.4-0.9,0.6-1.5,0.6C23.8,24.5,23.3,24.3,22.9,23.9z"/>
</svg>
