<?xml version="1.0" encoding="utf-8"?>
<!-- Generator: Adobe Illustrator 23.0.1, SVG Export Plug-In . SVG Version: 6.00 Build 0)  -->
<svg version="1.1" id="Laag_1" xmlns="http://www.w3.org/2000/svg" xmlns:xlink="http://www.w3.org/1999/xlink" x="0px" y="0px"
	 viewBox="0 0 21.1 17" style="enable-background:new 0 0 21.1 17;" xml:space="preserve">
<path d="M4.4,15.9c-1.4-0.7-2.4-1.7-3.2-3S0,10.1,0,8.5s0.4-3.1,1.2-4.4s1.8-2.3,3.2-3S7.3,0,9,0c1.4,0,2.7,0.3,3.9,0.8
	C14,1.3,15,2,15.8,3l-2.4,2.3C12.3,4,10.9,3.4,9.3,3.4c-1,0-1.9,0.2-2.7,0.7C5.8,4.5,5.2,5.2,4.7,6S3.9,7.5,3.9,8.5s0.2,1.9,0.7,2.7
	s1.1,1.4,1.9,1.9s1.7,0.7,2.7,0.7c1.6,0,3-0.6,4.1-2l2.4,2.3c-0.8,1-1.8,1.7-2.9,2.2c-1.2,0.5-2.5,0.8-3.9,0.8
	C7.3,17,5.8,16.6,4.4,15.9z"/>
<path d="M17.5,16.4c-0.4-0.4-0.6-0.9-0.6-1.5s0.2-1.1,0.6-1.5c0.4-0.4,0.9-0.6,1.5-0.6c0.6,0,1.1,0.2,1.5,0.6
	c0.4,0.4,0.6,0.9,0.6,1.5s-0.2,1.1-0.6,1.5C20.1,16.8,19.6,17,19,17C18.4,17,17.9,16.8,17.5,16.4z"/>
</svg>
